<svg id="Capa_1" enable-background="new 0 0 512 512" height="512" viewBox="0 0 512 512" width="512" xmlns="http://www.w3.org/2000/svg"><g><path d="m24.898 242c-1.349 0-2.428-1.142-2.338-2.488 8.482-127.62 114.672-228.512 244.44-228.512s235.959 100.893 244.44 228.514c.089 1.345-.988 2.486-2.336 2.486z" fill="#00d1fc"/><path d="m512 256c0 37.935-8.621 73.855-24.012 105.91-1.623 3.38-12.717-1.963-14.488 1.329-15.684 29.149-34.9 54.528-57.803 74.81-49.773-44.838-81.073-109.781-81.073-182.049 0-5.607.206-11.166.577-16.679h176.223c.37 5.513.576 11.072.576 16.679zm-490 0c0 119.134 85.032 218.408 197.715 240.441.963.188 1.929-9.518 2.896-9.341 3.479.637 6.984 1.2 10.513 1.688v-249.467h-210.565c-.371 5.512-.559 11.074-.559 16.679z" fill="#ffc143"/><path d="m466 60.739v295h-420v-295z" fill="#0396fd"/><path d="m80 60.739v295h-34v-295z" fill="#0077f0"/><path d="m466 315.739v40h-420v-40z" fill="#0055ca"/><path d="m80 315.739v40h-34v-40z" fill="#00429c"/><path d="m466 53.239h-420c-4.142 0-7.5 3.358-7.5 7.5v295c0 4.142 3.358 7.5 7.5 7.5h420c4.143 0 7.5-3.358 7.5-7.5v-295c0-4.142-3.357-7.5-7.5-7.5zm-7.5 295h-405v-280h405z" fill="#003278"/><path d="m94.5 356.91c0 8.284-6.716 15-15 15h-64.5c-8.284 0-15-6.716-15-15s6.716-15 15-15h64.5c8.284 0 15 6.715 15 15z" fill="#9ae7fd"/><path d="m417 356.91c0 8.284-6.716 15-15 15h-327c-8.284 0-15-6.716-15-15s6.716-15 15-15h135.045l7.125 5.007 53.277-5.007h131.553c8.284 0 15 6.715 15 15z" fill="#c9f0ff"/><path d="m301.955 341.91c-.597 7.737-7.064 13.83-14.955 13.83h-62c-7.891 0-14.358-6.092-14.955-13.83z" fill="#9ae7fd"/><path d="m302 60.739c0 8.284-6.716 15-15 15h-62c-8.284 0-15-6.716-15-15 0-8.284 6.716-15 15-15h62c8.284 0 15 6.716 15 15z" fill="#00429c"/><path d="m278.2 60.739c0 4.087-3.313 7.4-7.4 7.4s-7.4-3.313-7.4-7.4 3.313-7.4 7.4-7.4 7.4 3.313 7.4 7.4zm-37-7.4c-4.087 0-7.4 3.313-7.4 7.4s3.313 7.4 7.4 7.4 7.4-3.313 7.4-7.4-3.313-7.4-7.4-7.4z" fill="#003278"/><path d="m134.5 128.638h-20c-5.523 0-10-4.477-10-10 0-5.523 4.477-10 10-10h20c5.523 0 10 4.477 10 10 0 5.523-4.477 10-10 10zm10 30c0-5.523-4.477-10-10-10h-20c-5.523 0-10 4.477-10 10 0 5.523 4.477 10 10 10h20c5.523 0 10-4.477 10-10zm0 40c0-5.523-4.477-10-10-10h-20c-5.523 0-10 4.477-10 10 0 5.523 4.477 10 10 10h20c5.523 0 10-4.477 10-10zm0 40c0-5.523-4.477-10-10-10h-20c-5.523 0-10 4.477-10 10 0 5.523 4.477 10 10 10h20c5.523 0 10-4.477 10-10zm-50 40c0-5.523-4.477-10-10-10-5.523 0-10 4.477-10 10 0 5.523 4.477 10 10 10 5.523 0 10-4.477 10-10zm30 0c0-5.523-4.477-10-10-10-5.523 0-10 4.477-10 10 0 5.523 4.477 10 10 10 5.523 0 10-4.477 10-10zm106.7-150h-20c-5.523 0-10-4.477-10-10 0-5.523 4.477-10 10-10h20c5.523 0 10 4.477 10 10 0 5.523-4.477 10-10 10zm10 30c0-5.523-4.477-10-10-10h-20c-5.523 0-10 4.477-10 10 0 5.523 4.477 10 10 10h20c5.523 0 10-4.477 10-10zm0 40c0-5.523-4.477-10-10-10h-20c-5.523 0-10 4.477-10 10 0 5.523 4.477 10 10 10h20c5.523 0 10-4.477 10-10zm0 40c0-5.523-4.477-10-10-10h-20c-5.523 0-10 4.477-10 10 0 5.523 4.477 10 10 10h20c5.523 0 10-4.477 10-10zm88.172-110h-20c-5.523 0-10-4.477-10-10 0-5.523 4.477-10 10-10h20c5.523 0 10 4.477 10 10 0 5.523-4.477 10-10 10zm10 30c0-5.523-4.477-10-10-10h-20c-5.523 0-10 4.477-10 10 0 5.523 4.477 10 10 10h20c5.523 0 10-4.477 10-10z" fill="#83bfff"/><path d="m181.2 128.638c-5.523 0-10-4.477-10-10 0-5.523 4.477-10 10-10 5.523 0 10 4.477 10 10 0 5.523-4.477 10-10 10zm10 30c0-5.523-4.477-10-10-10-5.523 0-10 4.477-10 10 0 5.523 4.477 10 10 10 5.523 0 10-4.477 10-10zm0 40c0-5.523-4.477-10-10-10-5.523 0-10 4.477-10 10 0 5.523 4.477 10 10 10 5.523 0 10-4.477 10-10zm0 40c0-5.523-4.477-10-10-10-5.523 0-10 4.477-10 10 0 5.523 4.477 10 10 10 5.523 0 10-4.477 10-10zm88.172-110c-5.523 0-10-4.477-10-10 0-5.523 4.477-10 10-10 5.523 0 10 4.477 10 10 0 5.523-4.477 10-10 10zm10 30c0-5.523-4.477-10-10-10-5.523 0-10 4.477-10 10 0 5.523 4.477 10 10 10 5.523 0 10-4.477 10-10z" fill="#ffc143"/><path d="m263.942 208.837c0-8.284 6.716-15 15-15h185.17c.914 0 1.809.082 2.678.239 4.61 8.521 8.73 17.345 12.322 26.436v157.987c-.027.107-.058.213-.085.32-41.384 71.288-117.68 119.795-205.489 122.096-2.172.057-4.352-2.014-6.538-2.014-1.022 0-2.038-.026-3.058-.039z" fill="#fff5f5"/><path d="m242.219 193.837h46.319c-8.284 0-15 6.716-15 15v292.075c-2.173.057-4.352.088-6.538.088-10.944 0-21.717-.729-32.281-2.125-.522-.069-1.044-2.992-1.564-3.065-1.986-.275-3.965-.574-5.936-.896v-286.077c0-8.284 6.715-15 15-15z" fill="#c9f0ff"/><path d="m486.613 359.609c0 1.737-.022 3.468-.058 5.196-4.46 8.983-9.454 17.651-14.942 25.967v-181.935c0-4.136-3.364-7.5-7.5-7.5h-221.895c-4.135 0-7.5 3.364-7.5 7.5v290.044c-5.051-.665-10.051-1.489-15-2.457v-162.935c-.653.186-1.341.285-2.053.285-4.142 0-7.5-3.358-7.5-7.5v-30c0-4.142 3.358-7.5 7.5-7.5.712 0 1.401.099 2.053.285v-28.506c-.653.185-1.341.284-2.053.284-4.142 0-7.5-3.358-7.5-7.5v-30c0-4.142 3.358-7.5 7.5-7.5.712 0 1.401.099 2.053.285v-7.285c0-12.407 10.093-22.5 22.5-22.5h167.395l3.339 4.067h51.027c5.2 0 7.93 3.155 11.745 6.128 5.108 18.636 2.869 33.829 3.404 53.957.012.434 7.419 3.764 7.428 10.649.038 28.086.057 96.69.057 98.471zm-118.448-143.772h-30c-4.143 0-7.5 3.358-7.5 7.5s3.357 7.5 7.5 7.5h30c4.143 0 7.5-3.358 7.5-7.5s-3.357-7.5-7.5-7.5z" fill="#00429c"/><path d="m486.613 208.837v52.301c0 4.142-3.358 7.5-7.5 7.5s-7.5-3.358-7.5-7.5v-52.301c0-4.142-3.358-7.5-7.5-7.5h-54.5c-4.142 0-7.5-3.358-7.5-7.5s3.358-7.5 7.5-7.5h54.5c12.426 0 22.5 10.073 22.5 22.5z" fill="#0055ca"/><path d="m278.985 473.37c0 5.523-4.477 10-10 10s-10-4.477-10-10c0-5.523 4.477-10 10-10s10 4.477 10 10zm20-191.46h125.503c5.523 0 10-4.477 10-10s-4.477-10-10-10h-125.503c-5.523 0-10 4.477-10 10 0 5.522 4.477 10 10 10zm0 181.46c-5.523 0-10 4.477-10 10 0 5.523 4.477 10 10 10s10-4.477 10-10c0-5.523-4.477-10-10-10zm125.503-161.46h-125.503c-5.523 0-10 4.477-10 10s4.477 10 10 10h125.503c5.523 0 10-4.477 10-10s-4.478-10-10-10zm0 40h-125.503c-5.523 0-10 4.477-10 10s4.477 10 10 10h125.503c5.523 0 10-4.477 10-10s-4.478-10-10-10zm0 40h-125.503c-5.523 0-10 4.477-10 10s4.477 10 10 10h125.503c5.523 0 10-4.477 10-10s-4.478-10-10-10z" fill="#83bfff"/><path d="m94.5 238.638c0 5.523-4.477 10-10 10s-10-4.477-10-10c0-5.523 4.477-10 10-10s10 4.477 10 10zm-10-50c-5.523 0-10 4.477-10 10 0 5.523 4.477 10 10 10s10-4.477 10-10c0-5.523-4.477-10-10-10zm0-40c-5.523 0-10 4.477-10 10 0 5.523 4.477 10 10 10s10-4.477 10-10c0-5.523-4.477-10-10-10zm0-40c-5.523 0-10 4.477-10 10 0 5.523 4.477 10 10 10s10-4.477 10-10c0-5.523-4.477-10-10-10z" fill="#00d683"/><path d="m278.985 391.91c0 5.523-4.477 10-10 10s-10-4.477-10-10 4.477-10 10-10 10 4.477 10 10zm-10-110c5.523 0 10-4.477 10-10s-4.477-10-10-10-10 4.477-10 10c0 5.522 4.477 10 10 10zm0 20c-5.523 0-10 4.477-10 10s4.477 10 10 10 10-4.477 10-10-4.477-10-10-10zm0 40c-5.523 0-10 4.477-10 10s4.477 10 10 10 10-4.477 10-10-4.477-10-10-10z" fill="#00d683"/><path d="m396.053 118.638c0 5.523-4.477 10-10 10s-10-4.477-10-10 4.477-10 10-10 10 4.477 10 10zm20-10c-5.523 0-10 4.477-10 10 0 5.523 4.477 10 10 10s10-4.477 10-10c0-5.523-4.477-10-10-10z" fill="#83bfff"/><path d="m512 405.051c0 18.147-5.089 35.106-13.917 49.528-1.288 2.104-3.062 3.878-5.166 5.166-14.422 8.828-31.38 13.917-49.528 13.917-52.293 0-95.001-42.708-95.001-95.001 0-18.14 5.085-35.093 13.906-49.51 1.295-2.116 3.078-3.899 5.194-5.194 14.418-8.822 31.37-13.906 49.51-13.906 52.294-.001 95.002 42.708 95.002 95z" fill="#00d683"/><path d="m498.973 453.095c-16.502 28.094-47.035 46.955-81.973 46.955-52.467 0-95-42.533-95-95 0-34.938 18.861-65.471 46.956-81.973-8.279 14.096-13.027 30.515-13.027 48.044 0 52.467 42.533 95 95 95 17.529.001 33.948-4.747 48.044-13.026z" fill="#00b972"/><path d="m370.936 405.05c0 .023-.001.047-.001.071h8.983c2.731 0 4.226 3.183 2.482 5.285l-16.737 20.164c-1.29 1.554-3.674 1.554-4.963 0l-16.737-20.164c-1.745-2.102-.25-5.285 2.482-5.285h9.492c0-.024-.001-.047-.001-.071 0-33.671 27.394-61.064 61.064-61.064 4.143 0 7.5 3.358 7.5 7.5s-3.357 7.5-7.5 7.5c-25.4 0-46.064 20.664-46.064 46.064zm118.565-5.254-16.737-20.164c-1.29-1.554-3.674-1.554-4.963 0l-16.737 20.164c-1.745 2.102-.25 5.285 2.482 5.285h9.519c-.017 25.385-20.674 46.033-46.064 46.033-4.143 0-7.5 3.358-7.5 7.5s3.357 7.5 7.5 7.5c33.661 0 61.047-27.376 61.064-61.033h8.955c2.73 0 4.225-3.183 2.481-5.285z" fill="#fff"/></g></svg>