<svg id="Capa_1" enable-background="new 0 0 512 512" height="512" viewBox="0 0 512 512" width="512" xmlns="http://www.w3.org/2000/svg"><g><path d="m250.341 316c4.143 0 7.5-3.358 7.5-7.5s-3.357-7.5-7.5-7.5h-28.22c-4.143 0-7.5 3.358-7.5 7.5s3.357 7.5 7.5 7.5z"/><path d="m175.025 118.641c21.414-33.757 66.302-43.798 100.058-22.384 3.496 2.219 8.132 1.182 10.351-2.315s1.183-8.132-2.315-10.351c-40.743-25.847-94.915-13.725-120.759 27.015-15.767 24.855-17.871 55.113-6.613 81.279l-11.356-3.379c-3.967-1.182-8.146 1.08-9.327 5.049-1.182 3.97 1.079 8.146 5.05 9.328l29.151 8.675c3.39.874 7.923-.393 9.327-5.049l8.675-29.151c1.182-3.97-1.079-8.146-5.05-9.328-3.968-1.183-8.146 1.08-9.327 5.049l-3.637 12.221c-8.997-21.522-7.154-46.282 5.772-66.659z"/><path d="m463.329 165.5h-7.099v-115.18c0-27.746-22.569-50.32-50.311-50.32h-339.376c-27.742 0-50.313 22.574-50.313 50.32v124.424c0 4.142 3.357 7.5 7.5 7.5s7.5-3.358 7.5-7.5v-124.424c0-19.475 15.841-35.32 35.313-35.32h339.376c19.471 0 35.312 15.845 35.312 35.32v115.18h-15.5v-111.803c0-13.084-11.013-23.729-24.549-23.729h-50.947c-4.143 0-7.5 3.358-7.5 7.5s3.357 7.5 7.5 7.5h50.947c5.266 0 9.549 3.916 9.549 8.729v111.803h-87.339c1.328-14.583-1.047-29.279-6.797-42.659l11.477 3.415c3.969 1.184 8.146-1.08 9.327-5.049 1.182-3.97-1.079-8.146-5.05-9.328l-29.151-8.675c-2.858-1.043-8.873.66-9.68 6.234l-8.322 27.967c-1.182 3.97 1.079 8.146 5.05 9.328 2.999.897 7.661-.454 9.327-5.049l3.589-12.06c4.682 11.285 6.484 23.649 5.134 35.878-17.852.041-32.364 14.609-32.364 32.511v20.152c-23.823 15.612-54.248 15.932-78.522.534-3.498-2.221-8.133-1.183-10.351 2.315-2.219 3.498-1.183 8.132 2.315 10.351 14.102 8.946 30.199 13.624 46.769 13.624 12.528.153 28.074-3.426 39.789-9.517v35.496h-204.652c-5.266 0-9.55-3.916-9.55-8.729v-208.542c0-4.813 4.284-8.729 9.55-8.729h243.975c4.143 0 7.5-3.358 7.5-7.5s-3.357-7.5-7.5-7.5h-243.975c-13.537 0-24.55 10.645-24.55 23.729v208.542c0 13.084 11.013 23.729 24.55 23.729h204.651v45.032h-209.388c-19.472 0-35.313-15.845-35.313-35.32v-85.871c0-4.142-3.357-7.5-7.5-7.5s-7.5 3.358-7.5 7.5v85.871c0 27.747 22.57 50.32 50.313 50.32h209.389v79.638c0 4.142 3.357 7.5 7.5 7.5s7.5-3.358 7.5-7.5v-227.625c0-9.657 7.823-17.513 17.439-17.513h154.958c9.616 0 17.44 7.856 17.44 17.513v25.328c0 4.142 3.357 7.5 7.5 7.5s7.5-3.358 7.5-7.5v-25.328c.001-17.928-14.552-32.513-32.44-32.513z"/><path d="m488.27 250.819c-4.143 0-7.5 3.358-7.5 7.5v221.168c0 9.657-7.824 17.513-17.44 17.513h-154.959c-9.616 0-17.439-7.856-17.439-17.513v-18.7c0-4.142-3.357-7.5-7.5-7.5s-7.5 3.358-7.5 7.5v18.7c0 17.928 14.553 32.513 32.439 32.513h154.958c17.888 0 32.44-14.585 32.44-32.513v-221.168c.001-4.142-3.357-7.5-7.499-7.5z"/><path d="m389.827 210.938c4.143 0 7.5-3.358 7.5-7.5s-3.357-7.5-7.5-7.5h-33.253c-4.143 0-7.5 3.358-7.5 7.5s3.357 7.5 7.5 7.5z"/><path d="m460.039 313.506c1.182-3.97-1.079-8.146-5.049-9.328l-20.782-6.185c-2.412-.817-8.734.481-9.633 6.073l-5.88 19.759c-1.182 3.97 1.079 8.146 5.049 9.328 2.999.897 7.661-.453 9.328-5.049l.665-2.233c3.561 13.132 1.585 27.382-6.047 39.414-13.089 20.631-39.744 28.678-62.002 18.713-3.783-1.692-8.218.001-9.91 3.782s.001 8.217 3.781 9.91c8.396 3.757 17.265 5.549 26.051 5.549 21.577 0 42.629-10.819 54.746-29.919 10.838-17.085 12.922-37.603 6.448-55.927l3.907 1.163c3.975 1.182 8.147-1.08 9.328-5.05z"/><path d="m311.662 363.856c-1.182 3.97 1.079 8.146 5.049 9.328l20.782 6.185c3.396.868 7.915-.38 9.328-5.049l6.185-20.782c1.182-3.97-1.079-8.146-5.049-9.328-3.974-1.182-8.146 1.08-9.328 5.049l-.671 2.254c-3.516-13.104-1.529-27.31 6.075-39.297 13.021-20.524 39.576-28.612 61.766-18.819 3.791 1.671 8.218-.043 9.89-3.833 1.673-3.79-.044-8.217-3.833-9.89-13.989-6.174-29.797-7.147-44.517-2.744-14.871 4.45-27.646 14.127-35.972 27.25-10.801 17.026-12.904 37.49-6.496 55.781l-3.881-1.155c-3.972-1.18-8.146 1.081-9.328 5.05z"/><circle cx="417.84" cy="203.44" r="7.5"/></g></svg>