<svg xmlns="http://www.w3.org/2000/svg" height="24" viewBox="0 -960 960 960" width="24"><path d="M200-200h43.923l427.923-427.923-43.923-43.923L200-243.923V-200Zm-7.693 40q-13.73 0-23.019-9.288Q160-178.577 160-192.307v-41.616q0-13.265 5.231-25.287 5.23-12.021 13.923-20.713l508.077-508.616q6.146-5.481 13.573-8.471 7.427-2.99 15.486-2.99 8.06 0 15.616 2.538 7.556 2.539 13.94 9.154l42.693 42.923q6.615 6.385 9.038 14.008Q800-723.754 800-716.131q0 8.131-2.741 15.558-2.74 7.427-8.72 13.573L279.923-179.154q-8.692 8.693-20.713 13.923Q247.188-160 233.923-160h-41.616Zm568.462-556.308-44.461-44.461 44.461 44.461Zm-111.27 66.809-21.576-22.347 43.923 43.923-22.347-21.576Z"/></svg>