<svg xmlns="http://www.w3.org/2000/svg" height="24" viewBox="0 -960 960 960" width="24"><path d="M443.833-137q-10.833 0-18.645-7.036Q417.375-151.071 416-162l-11-85.5q-16-4-42-18T314-298l-77 33.5q-10.5 5-20.5 1t-16-13.5l-37-64q-5-9.744-2.75-20.122T171.5-378.5l68-50.5q-2.5-11.975-3.75-24.487Q234.5-466 234.5-479q0-10.5 1.5-23.25l3.5-29.75-68-50.5q-8.333-6.538-10.917-17.019Q158-610 164-620l36.5-61q6-9.5 15.5-13.5t20 .5l78 33q19.5-16.5 43-30.25t47-21.25l12-86q1.375-10.643 9.188-17.821Q433-823.5 443.833-823.5h71.834q10.333 0 18.645 7.036 8.313 7.035 10.188 17.464l11 87q26 9 45.75 20.75T642-661l82.5-33q10-4.5 19.528-1.307 9.528 3.193 15.472 12.807l37 62.5q5.5 10 2.917 20.481-2.584 10.481-10.917 17.019l-73 54.445Q719-514 719.75-503t.75 23q0 10.5-1 21.925t-4 28.075l70.5 52q9 6.5 11.5 17t-3.707 20.085L757.5-277q-5.959 10.152-16.23 13.326Q731-260.5 721-265.5l-79-34q-20.5 18-41 30.5t-45.5 20.5l-11 86.5q-1.875 10.929-10.188 17.964Q526-137 515.667-137h-71.834Zm-3.545-25.5H517.5L533-272q29.5-8 52.25-21t48.25-38L734-287.5l39.5-67.5-88.5-66q4.5-18 6.25-31.84Q693-466.681 693-480q0-15-1.5-27.5T685-537l90.5-68.5-39-67.5-104 43.5q-16-18-46.5-36t-54-23L520.071-798H440l-11.5 108.5q-31 6.5-54.75 19.5t-50.25 39.5L224-673l-40 67.5 87 64.5q-5 13.5-7 29.25t-2 32.22q0 15.03 1.75 29.53 1.75 14.5 5.75 29.5L184-355l40.076 67.5 98.424-42q24.5 24.5 49 38t56 21l12.788 108Zm36.943-232q35.769 0 60.519-24.801 24.75-24.8 24.75-60.75 0-35.949-24.786-60.699Q512.929-565.5 477-565.5q-36 0-60.75 24.801-24.75 24.8-24.75 60.75 0 35.949 24.75 60.699t60.981 24.75Zm2.769-86Z"/></svg>