<svg id="Layer_1" enable-background="new 0 0 512 512" height="512" viewBox="0 0 512 512" width="512" xmlns="http://www.w3.org/2000/svg"><g id="Layer_2_00000023991655703599161260000008782044354419201688_"><g id="link_failed"><path d="m356.1 240.7c0-10.5-8.5-19.1-19.1-19.1h-45.2l38.2 38.2h7c10.5 0 19.1-8.5 19.1-19.1z"/><path d="m447.7 177.7c17.4 17.4 26.1 38.4 26.1 63 .3 20.9-7.5 41.2-21.6 56.6-14.4 16.1-32.5 26.3-54.1 30.6l31.2 31.2c24-9.7 44.8-26 59.8-47.1 15.1-20.7 23.1-45.6 22.9-71.2 0-35.2-12.4-65.2-37.2-90.1s-54.8-37.2-90.1-37.2h-98.7v38.2h98.7c24.6-.1 45.6 8.6 63 26z"/><path d="m5.7 44.3 76.1 76.1c-19.8 7.7-36.7 20.3-50.7 37.6-18.9 23.3-28.3 50.3-28.3 80.8 0 35.2 12.4 65.2 37.2 90.1 24.8 24.8 54.8 37.2 90.1 37.2h108.2v-38.2h-107.4c-24 .1-46.9-9.3-63.9-26.1-17.6-17.6-26.2-38.9-26-63.8.2-23.4 9.6-45.8 26.2-62.3 13.1-13 28.2-21.2 45.4-24.3l68.4 68.4h-3.2c-10.5 0-19.1 8.5-19.1 19.1 0 10.5 8.5 19.1 19.1 19.1h41.4l237.1 237c7.6 7.5 19.8 7.5 27.4 0 7.5-7.6 7.5-19.8 0-27.4l-450.7-450.6c-7.6-7.6-19.8-7.6-27.4 0-7.5 7.6-7.5 19.8.1 27.3z"/></g></g></svg>